<?xml version="1.0" encoding="utf-8"?>
<!-- Svg Vector Icons : http://www.onlinewebfonts.com/icon -->
<!DOCTYPE svg PUBLIC "-//W3C//DTD SVG 1.1//EN" "http://www.w3.org/Graphics/SVG/1.1/DTD/svg11.dtd">
<svg version="1.1" xmlns="http://www.w3.org/2000/svg" xmlns:xlink="http://www.w3.org/1999/xlink" x="0px" y="0px" viewBox="0 0 1000 1000" enable-background="new 0 0 1000 1000" xml:space="preserve">
<metadata> Svg Vector Icons : http://www.onlinewebfonts.com/icon </metadata>
<g><path fill="#61dafb" d="M500,781.8c-130,0-252.3-28.8-344.5-81C61.7,647.5,10,576.3,10,500c0-76.3,51.7-147.6,145.5-200.7c92.2-52.3,214.5-81,344.5-81c130,0,252.3,28.8,344.5,81C938.3,352.4,990,423.7,990,500c0,76.3-51.7,147.6-145.5,200.7C752.3,753,630,781.8,500,781.8z M500,236.6C240,236.6,28.4,354.8,28.4,500C28.4,645.2,240,763.4,500,763.4c260,0,471.6-118.2,471.6-263.4C971.6,354.8,760,236.6,500,236.6z M500,708.9c-3.9,0-7.4-2.5-8.7-6.2c-8.8-25.8-37.8-96-66.6-111.1c-9.3-4.9-17.7-7.4-25.1-7.4c-13,0-20.4,7.7-25.8,13.4l-1.5,1.6c-7.6,7.8-21.8,26.6-21.9,26.8c-1.7,2.2-4.2,3.5-7,3.7c-2.8,0.1-5.4-1-7.2-3c-0.4-0.4-40.7-44.9-78.9-45.2h-0.6c-12.5,0-21.7,3.4-27.4,10.3c-9.7,11.7-7.3,30-6.3,35.3c3.7,20.2,19.2,46.1,19.4,46.4c2,3.4,1.7,7.6-0.8,10.6c-2.5,3-6.6,4.1-10.3,2.7c-5.9-2.2-144.9-55.9-163.4-165.7c-12.6-75,41-144.2,151-194.8c39-18,105.3-35.8,108.1-36.6c3.9-1.1,8.1,0.6,10.2,4.1c2.1,3.5,1.7,8-1,11c-2.1,2.4-51.9,58.5-10.5,103.5c12.6,13.7,28.3,20.9,45.5,20.9c33.6,0,63.8-26.8,67.4-49.8c6.4-41.9,7.3-98.2,7.3-98.8c0.1-4.1,2.9-7.7,6.9-8.8c4-1,8.2,0.8,10.3,4.4l22.9,40.2l14-0.3l14.3,0.3L537,276c2.1-3.6,6.3-5.4,10.3-4.4c4,1,6.8,4.6,6.9,8.8c0,0.6,0.8,56.9,7.3,98.8c3.5,23.1,33.7,49.8,67.4,49.8c17.2,0,32.9-7.2,45.5-20.9c41.5-45.2-8.4-101.2-10.5-103.5c-2.7-3-3.2-7.5-1-11c2.1-3.5,6.3-5.2,10.2-4.1c2.8,0.8,69.1,18.6,108.1,36.6c110,50.6,163.7,119.8,151,194.8c-18.5,109.8-157.5,163.4-163.4,165.7c-3.7,1.4-7.8,0.3-10.3-2.7c-2.5-3-2.8-7.3-0.8-10.6c0.2-0.3,15.7-26.2,19.4-46.4c1-5.3,3.4-23.6-6.3-35.3c-5.7-6.8-14.9-10.2-27.4-10.2h-0.6c-38.2,0.3-78.5,44.8-78.9,45.2c-1.8,2-4.5,3.2-7.2,3c-2.7-0.1-5.3-1.5-7-3.7c-0.1-0.2-14.3-19.1-21.9-26.8l-1.5-1.6c-5.4-5.7-12.7-13.4-25.8-13.4c-7.3,0-15.8,2.5-25.1,7.4c-28.8,15.1-57.8,85.4-66.6,111.1C507.4,706.4,503.9,708.9,500,708.9z M399.6,565.7c10.4,0,21.7,3.2,33.6,9.5c29.1,15.3,54.1,67.8,66.7,98.6c12.6-30.8,37.6-83.3,66.7-98.6c12-6.3,23.3-9.5,33.6-9.5c20.9,0,32.7,12.4,39.1,19.1l1.3,1.4c4.9,5,11.9,13.7,16.9,20.1c14.9-14.3,49.2-43.2,84.8-43.5h0.8c18.2,0,32.2,5.7,41.5,16.9c14.4,17.3,12,41,10.2,50.4c-1.7,9.5-5.5,19.6-9.4,28.5c39.4-19.9,116-67.3,128.4-140.8c14.3-84.7-68.6-142-140.6-175.1c-23-10.6-56.9-21.4-80-28.3c16.5,28.8,26.7,70.9-5.6,106.1c-16.2,17.6-36.6,26.9-59,26.9c-40.2,0-80.2-30.6-85.6-65.5c-3.5-22.6-5.3-48.6-6.3-68.7l-9.5,16.8c-1.7,2.9-4.8,4.8-8.2,4.6l-19.4-0.4l-19.1,0.4c-3.5,0.2-6.5-1.7-8.2-4.6l-9.5-16.8c-1,20-2.9,46.1-6.3,68.7c-5.3,34.9-45.3,65.5-85.6,65.5c-22.5,0-42.9-9.3-59-26.9c-32.2-35.1-22-77.3-5.6-106.1c-23.1,6.9-57,17.7-80,28.3c-72,33.1-154.8,90.4-140.6,175.1c12.4,73.5,88.9,121,128.4,140.8c-3.9-8.9-7.7-19-9.4-28.5c-1.7-9.4-4.2-33.1,10.2-50.4c9.3-11.2,23.3-16.9,41.5-16.9h0.8c35.6,0.3,69.9,29.1,84.8,43.5c5.1-6.5,12-15.1,16.9-20.1l1.3-1.4C366.9,578.2,378.7,565.7,399.6,565.7z"/><g></g><g></g><g></g><g></g><g></g><g></g><g></g><g></g><g></g><g></g><g></g><g></g><g></g><g></g><g></g></g>
</svg>